<?xml version="1.0" encoding="UTF-8" standalone="no"?>
<!DOCTYPE svg PUBLIC "-//W3C//DTD SVG 1.1//EN"
 "http://www.w3.org/Graphics/SVG/1.1/DTD/svg11.dtd">
<!-- Generated by graphviz version 2.38.0 (20140413.2041)
 -->
<!-- Title: %3 Pages: 1 -->
<svg width="434pt" height="283pt"
 viewBox="0.00 0.00 433.50 283.00" xmlns="http://www.w3.org/2000/svg" xmlns:xlink="http://www.w3.org/1999/xlink">
<g id="graph0" class="graph" transform="scale(1 1) rotate(0) translate(4 279)">
<title>%3</title>
<polygon fill="white" stroke="none" points="-4,4 -4,-279 429.5,-279 429.5,4 -4,4"/>
<!-- FanqingKong -->
<g id="node1" class="node"><title>FanqingKong</title>
<polygon fill="bisque" stroke="black" points="268.5,-163 213.5,-163 213.5,-127 268.5,-127 268.5,-163"/>
<text text-anchor="middle" x="241" y="-141.3" font-family="Times New Roman,serif" font-size="14.00">孔繁清</text>
</g>
<!-- KunpingWang -->
<g id="node3" class="node"><title>KunpingWang</title>
<polygon fill="#e0eeee" stroke="black" points="371,-164 287,-164 287,-126 371,-126 371,-164"/>
<text text-anchor="middle" x="329" y="-148.8" font-family="Times New Roman,serif" font-size="14.00">王坤坪</text>
<text text-anchor="middle" x="329" y="-133.8" font-family="Times New Roman,serif" font-size="14.00">[ 二十四世 ]</text>
</g>
<!-- FanqingKong&#45;&gt;KunpingWang -->
<!-- CanwenWang -->
<g id="node2" class="node"><title>CanwenWang</title>
<polygon fill="#e0eeee" stroke="black" points="251,-275 167,-275 167,-237 251,-237 251,-275"/>
<text text-anchor="middle" x="209" y="-259.8" font-family="Times New Roman,serif" font-size="14.00">王灿文</text>
<text text-anchor="middle" x="209" y="-244.8" font-family="Times New Roman,serif" font-size="14.00">[ 二十三世 ]</text>
</g>
<!-- h0 -->
<g id="node10" class="node"><title>h0</title>
<ellipse fill="none" stroke="black" cx="270" cy="-256" rx="0.5" ry="0.5"/>
</g>
<!-- CanwenWang&#45;&gt;h0 -->
<g id="edge1" class="edge"><title>CanwenWang&#45;&gt;h0</title>
<path fill="none" stroke="black" d="M251.414,-256C257.416,-256 263.417,-256 269.419,-256"/>
</g>
<!-- KuntaoWang -->
<g id="node4" class="node"><title>KuntaoWang</title>
<polygon fill="#e0eeee" stroke="black" points="176,-164 92,-164 92,-126 176,-126 176,-164"/>
<text text-anchor="middle" x="134" y="-148.8" font-family="Times New Roman,serif" font-size="14.00">王坤涛</text>
<text text-anchor="middle" x="134" y="-133.8" font-family="Times New Roman,serif" font-size="14.00">[ 二十四世 ]</text>
</g>
<!-- h1 -->
<g id="node14" class="node"><title>h1</title>
<ellipse fill="none" stroke="black" cx="195" cy="-145" rx="0.5" ry="0.5"/>
</g>
<!-- KuntaoWang&#45;&gt;h1 -->
<g id="edge8" class="edge"><title>KuntaoWang&#45;&gt;h1</title>
<path fill="none" stroke="black" d="M176.414,-145C182.416,-145 188.417,-145 194.419,-145"/>
</g>
<!-- XichunWang -->
<g id="node5" class="node"><title>XichunWang</title>
<polygon fill="#e0eeee" stroke="black" points="84,-45.5 0,-45.5 0,-7.5 84,-7.5 84,-45.5"/>
<text text-anchor="middle" x="42" y="-30.3" font-family="Times New Roman,serif" font-size="14.00">王锡椿</text>
<text text-anchor="middle" x="42" y="-15.3" font-family="Times New Roman,serif" font-size="14.00">[ 二十五世 ]</text>
</g>
<!-- XihuaWang -->
<g id="node8" class="node"><title>XihuaWang</title>
<polygon fill="#e0eeee" stroke="black" points="186,-45.5 102,-45.5 102,-7.5 186,-7.5 186,-45.5"/>
<text text-anchor="middle" x="144" y="-30.3" font-family="Times New Roman,serif" font-size="14.00">王錫华</text>
<text text-anchor="middle" x="144" y="-15.3" font-family="Times New Roman,serif" font-size="14.00">[ 二十五世 ]</text>
</g>
<!-- XichunWang&#45;&gt;XihuaWang -->
<!-- XijunWang -->
<g id="node6" class="node"><title>XijunWang</title>
<polygon fill="bisque" stroke="black" points="288,-45.5 204,-45.5 204,-7.5 288,-7.5 288,-45.5"/>
<text text-anchor="middle" x="246" y="-30.3" font-family="Times New Roman,serif" font-size="14.00">王锡君</text>
<text text-anchor="middle" x="246" y="-15.3" font-family="Times New Roman,serif" font-size="14.00">[ 二十五世 ]</text>
</g>
<!-- XiqingWang -->
<g id="node9" class="node"><title>XiqingWang</title>
<polygon fill="#e0eeee" stroke="black" points="425.5,-53 306.5,-53 306.5,-0 425.5,-0 425.5,-53"/>
<text text-anchor="middle" x="366" y="-37.8" font-family="Times New Roman,serif" font-size="14.00">王锡卿</text>
<text text-anchor="middle" x="366" y="-22.8" font-family="Times New Roman,serif" font-size="14.00">[ 二十五世 ]</text>
<text text-anchor="middle" x="366" y="-7.8" font-family="Times New Roman,serif" font-size="14.00">1925&#45;08&#45;28 &#45; 1997</text>
</g>
<!-- XijunWang&#45;&gt;XiqingWang -->
<!-- ZhangshiWang -->
<g id="node7" class="node"><title>ZhangshiWang</title>
<polygon fill="bisque" stroke="black" points="343.5,-274 288.5,-274 288.5,-238 343.5,-238 343.5,-274"/>
<text text-anchor="middle" x="316" y="-252.3" font-family="Times New Roman,serif" font-size="14.00">王张氏</text>
</g>
<!-- XihuaWang&#45;&gt;XijunWang -->
<!-- h0&#45;&gt;ZhangshiWang -->
<g id="edge2" class="edge"><title>h0&#45;&gt;ZhangshiWang</title>
<path fill="none" stroke="black" d="M270.719,-256C276.615,-256 282.511,-256 288.407,-256"/>
</g>
<!-- h0_1 -->
<g id="node12" class="node"><title>h0_1</title>
<ellipse fill="none" stroke="black" cx="270" cy="-200.5" rx="0.5" ry="0.5"/>
</g>
<!-- h0&#45;&gt;h0_1 -->
<g id="edge5" class="edge"><title>h0&#45;&gt;h0_1</title>
<path fill="none" stroke="black" d="M270,-254.845C270,-251.777 270,-204.121 270,-201.145"/>
</g>
<!-- h0_0 -->
<g id="node11" class="node"><title>h0_0</title>
<ellipse fill="none" stroke="black" cx="212" cy="-200.5" rx="0.5" ry="0.5"/>
</g>
<!-- h0_0&#45;&gt;KuntaoWang -->
<g id="edge6" class="edge"><title>h0_0&#45;&gt;KuntaoWang</title>
<path fill="none" stroke="black" d="M211.943,-199.961C210.513,-198.971 182.242,-179.398 160.156,-164.108"/>
</g>
<!-- h0_0&#45;&gt;h0_1 -->
<g id="edge3" class="edge"><title>h0_0&#45;&gt;h0_1</title>
<path fill="none" stroke="black" d="M212.906,-200.5C231.64,-200.5 250.374,-200.5 269.108,-200.5"/>
</g>
<!-- h0_2 -->
<g id="node13" class="node"><title>h0_2</title>
<ellipse fill="none" stroke="black" cx="309" cy="-200.5" rx="0.5" ry="0.5"/>
</g>
<!-- h0_1&#45;&gt;h0_2 -->
<g id="edge4" class="edge"><title>h0_1&#45;&gt;h0_2</title>
<path fill="none" stroke="black" d="M270.609,-200.5C283.206,-200.5 295.803,-200.5 308.4,-200.5"/>
</g>
<!-- h0_2&#45;&gt;KunpingWang -->
<g id="edge7" class="edge"><title>h0_2&#45;&gt;KunpingWang</title>
<path fill="none" stroke="black" d="M309.057,-199.845C309.758,-197.952 316.745,-179.089 322.253,-164.216"/>
</g>
<!-- h1&#45;&gt;FanqingKong -->
<g id="edge9" class="edge"><title>h1&#45;&gt;FanqingKong</title>
<path fill="none" stroke="black" d="M195.719,-145C201.615,-145 207.511,-145 213.407,-145"/>
</g>
<!-- h1_2 -->
<g id="node17" class="node"><title>h1_2</title>
<ellipse fill="none" stroke="black" cx="195" cy="-89.5" rx="0.5" ry="0.5"/>
</g>
<!-- h1&#45;&gt;h1_2 -->
<g id="edge15" class="edge"><title>h1&#45;&gt;h1_2</title>
<path fill="none" stroke="black" d="M195,-143.845C195,-140.777 195,-93.121 195,-90.1455"/>
</g>
<!-- h1_0 -->
<g id="node15" class="node"><title>h1_0</title>
<ellipse fill="none" stroke="black" cx="84" cy="-89.5" rx="0.5" ry="0.5"/>
</g>
<!-- h1_0&#45;&gt;XichunWang -->
<g id="edge16" class="edge"><title>h1_0&#45;&gt;XichunWang</title>
<path fill="none" stroke="black" d="M83.9696,-88.9554C83.1647,-87.7769 66.5717,-63.4801 54.4948,-45.7959"/>
</g>
<!-- h1_1 -->
<g id="node16" class="node"><title>h1_1</title>
<ellipse fill="none" stroke="black" cx="144" cy="-89.5" rx="0.5" ry="0.5"/>
</g>
<!-- h1_0&#45;&gt;h1_1 -->
<g id="edge11" class="edge"><title>h1_0&#45;&gt;h1_1</title>
<path fill="none" stroke="black" d="M84.9375,-89.5C104.317,-89.5 123.697,-89.5 143.077,-89.5"/>
</g>
<!-- h1_1&#45;&gt;XihuaWang -->
<g id="edge17" class="edge"><title>h1_1&#45;&gt;XihuaWang</title>
<path fill="none" stroke="black" d="M144,-88.9554C144,-87.7769 144,-63.4801 144,-45.7959"/>
</g>
<!-- h1_1&#45;&gt;h1_2 -->
<g id="edge12" class="edge"><title>h1_1&#45;&gt;h1_2</title>
<path fill="none" stroke="black" d="M144.797,-89.5C161.27,-89.5 177.743,-89.5 194.216,-89.5"/>
</g>
<!-- h1_3 -->
<g id="node18" class="node"><title>h1_3</title>
<ellipse fill="none" stroke="black" cx="246" cy="-89.5" rx="0.5" ry="0.5"/>
</g>
<!-- h1_2&#45;&gt;h1_3 -->
<g id="edge13" class="edge"><title>h1_2&#45;&gt;h1_3</title>
<path fill="none" stroke="black" d="M195.797,-89.5C212.27,-89.5 228.743,-89.5 245.216,-89.5"/>
</g>
<!-- h1_3&#45;&gt;XijunWang -->
<g id="edge18" class="edge"><title>h1_3&#45;&gt;XijunWang</title>
<path fill="none" stroke="black" d="M246,-88.9554C246,-87.7769 246,-63.4801 246,-45.7959"/>
</g>
<!-- h1_4 -->
<g id="node19" class="node"><title>h1_4</title>
<ellipse fill="none" stroke="black" cx="315" cy="-89.5" rx="0.5" ry="0.5"/>
</g>
<!-- h1_3&#45;&gt;h1_4 -->
<g id="edge14" class="edge"><title>h1_3&#45;&gt;h1_4</title>
<path fill="none" stroke="black" d="M246.539,-89.5C269.181,-89.5 291.823,-89.5 314.465,-89.5"/>
</g>
<!-- h1_4&#45;&gt;XiqingWang -->
<g id="edge19" class="edge"><title>h1_4&#45;&gt;XiqingWang</title>
<path fill="none" stroke="black" d="M315.037,-88.9554C315.882,-87.937 331.044,-69.6529 344.612,-53.292"/>
</g>
</g>
</svg>
